<svg width="503" height="62" viewBox="0 0 503 62" fill="none" xmlns="http://www.w3.org/2000/svg">
<g clip-path="url(#clip0_125_2320)">
<path d="M149.812 7.89621H154.425L147.553 29.8444H142.772L136.161 7.89621H140.774L145.193 22.6085L149.806 7.89621H149.812Z" fill="#78B9E6"/>
<path d="M174.76 11.1532C176.625 13.2573 177.543 15.7924 177.543 18.9878C177.543 25.2387 172.568 30.2753 166.385 30.2753C160.202 30.2753 154.999 25.3059 154.999 18.9878C154.999 12.6697 159.974 7.47089 166.452 7.47089C169.657 7.47089 172.607 8.78599 174.766 11.1588L174.76 11.1532ZM159.573 18.9207C159.573 23.0003 162.484 26.1285 166.285 26.1285C170.086 26.1285 172.991 23.0003 172.991 19.0214C172.991 14.7739 170.175 11.6512 166.312 11.6512C162.45 11.6512 159.573 14.7459 159.573 18.9263V18.9207Z" fill="#78B9E6"/>
<path d="M185.646 29.8444H181.16V7.89621H187.899C193.298 7.89621 196.214 10.297 196.214 14.8075C196.214 18.2603 194.416 20.5659 191.044 21.4222L197.065 29.8444H191.634L185.646 21.1256V29.8444ZM187.677 18.4898C190.231 18.4898 191.667 17.2362 191.667 15.0369C191.667 12.8376 190.292 11.6121 188.066 11.6121H185.646V18.4898H187.677Z" fill="#78B9E6"/>
<path d="M204.756 26.0614L203.448 29.8444H198.701L206.231 7.89621H211.829L219.292 29.8444H214.384L213.143 26.0614H204.767H204.756ZM208.947 13.2909L205.903 22.3735H211.957L208.947 13.2909Z" fill="#78B9E6"/>
<path d="M226.037 29.8444H221.552V7.89621H228.291C233.689 7.89621 236.605 10.297 236.605 14.8075C236.605 18.2603 234.808 20.5659 231.435 21.4222L237.457 29.8444H232.025L226.037 21.1256V29.8444ZM228.068 18.4898C230.623 18.4898 232.058 17.2362 232.058 15.0369C232.058 12.8376 230.684 11.6121 228.458 11.6121H226.037V18.4898H228.068Z" fill="#78B9E6"/>
<path d="M252.365 26.1229V29.8444H240.584V7.89621H245.07V26.1285H252.365V26.1229Z" fill="#78B9E6"/>
<path d="M261.96 7.89621C264.642 7.89621 266.378 8.29354 267.525 9.14416C268.866 10.1627 269.617 11.8415 269.617 13.7834C269.617 15.2999 269.161 16.5479 268.243 17.5328C267.619 18.1596 267.13 18.4562 265.95 18.8479C267.258 19.1445 267.847 19.4075 268.538 20.0343C269.55 20.9577 270.107 22.3064 270.107 23.9852C270.107 26.0278 269.255 27.8354 267.847 28.7923C266.701 29.5478 265.36 29.8444 262.972 29.8444H254.92V7.89621H261.954H261.96ZM259.405 17.2082H261.203C263.852 17.2082 265.098 16.2513 265.098 14.2143C265.098 13.0951 264.575 12.1381 263.791 11.7464C263.167 11.4498 262.255 11.3211 260.975 11.3211H259.405V17.2138V17.2082ZM259.405 26.5203H261.598C263.134 26.5203 263.857 26.386 264.508 25.9271C265.226 25.4346 265.588 24.6456 265.588 23.5879C265.588 22.4015 265.165 21.5789 264.341 21.0864C263.657 20.6891 262.967 20.5603 261.331 20.5603H259.4V26.5147L259.405 26.5203Z" fill="#78B9E6"/>
<path d="M278.082 16.9788H285.739V20.6667H278.082V26.1621H285.739V29.85H273.596V7.89621H285.739V11.5841H278.082V16.9788Z" fill="#78B9E6"/>
<path d="M294.493 29.8444H290.008V7.89621H296.747C302.145 7.89621 305.061 10.297 305.061 14.8075C305.061 18.2603 303.264 20.5659 299.891 21.4222L305.913 29.8444H300.481L294.493 21.1256V29.8444ZM296.524 18.4898C299.079 18.4898 300.514 17.2362 300.514 15.0369C300.514 12.8376 299.14 11.6121 296.914 11.6121H294.493V18.4898H296.524Z" fill="#78B9E6"/>
<path d="M329.971 17.5384V18.7248C329.971 22.1161 328.991 24.6455 326.798 26.884C324.606 29.0889 321.823 30.2753 318.746 30.2753C312.329 30.2753 307.521 25.4066 307.521 18.9207C307.521 12.4347 312.301 7.47089 318.712 7.47089C322.246 7.47089 325.424 8.98745 327.55 11.6848L324.177 14.3486C322.575 12.4403 320.972 11.6177 318.813 11.6177C314.984 11.6177 312.073 14.7795 312.073 18.9207C312.073 23.0618 315.084 26.1957 318.913 26.1957C320.777 26.1957 322.641 25.373 323.788 23.9908C324.444 23.2353 324.767 22.5414 325.129 21.2263H319.041V17.5384H329.971Z" fill="#78B9E6"/>
<path d="M337.366 16.9788H345.024V20.6667H337.366V26.1621H345.024V29.85H332.881V7.89621H345.024V11.5841H337.366V16.9788Z" fill="#78B9E6"/>
<path d="M353.778 29.8444H349.292V7.89621H356.032C361.43 7.89621 364.346 10.297 364.346 14.8075C364.346 18.2603 362.548 20.5659 359.176 21.4222L365.197 29.8444H359.766L353.778 21.1256V29.8444ZM355.809 18.4898C358.364 18.4898 359.799 17.2362 359.799 15.0369C359.799 12.8376 358.425 11.6121 356.199 11.6121H353.778V18.4898H355.809Z" fill="#78B9E6"/>
<path d="M150.168 56.9019V60.6233H138.387V38.6751H142.872V56.9075H150.168V56.9019Z" fill="#78B9E6"/>
<path d="M157.753 56.8403L156.446 60.6233H151.699L159.228 38.6751H164.827L172.289 60.6233H167.381L166.14 56.8403H157.765H157.753ZM161.944 44.0699L158.9 53.1524H164.955L161.944 44.0699Z" fill="#78B9E6"/>
<path d="M179.034 60.6233H174.549V38.6751H178.968L188.1 52.3634V38.6751H192.585V60.6233H188.2L179.034 46.7336V60.6233Z" fill="#78B9E6"/>
<path d="M197.36 38.6751H203.548C207.082 38.6751 209.47 39.397 211.401 41.1095C213.627 43.0849 214.834 45.9446 214.834 49.403C214.834 52.8614 213.593 56.0848 211.367 58.0939C209.57 59.7391 206.949 60.6289 203.81 60.6289H197.366V38.6807L197.36 38.6751ZM201.846 56.9075H202.697C205.084 56.9075 206.559 56.4822 207.834 55.3909C209.403 54.0422 210.288 51.9661 210.288 49.5317C210.288 45.1555 207.639 42.3238 203.482 42.3238H201.846V56.9019V56.9075Z" fill="#78B9E6"/>
<path d="M222.564 47.7577H230.222V51.4456H222.564V56.9411H230.222V60.6289H218.079V38.6808H230.222V42.3686H222.564V47.7633V47.7577Z" fill="#78B9E6"/>
<path d="M237.534 54.2045V54.5011C237.534 55.9841 238.809 57.0698 240.512 57.0698C242.215 57.0698 243.389 56.0513 243.389 54.7362C243.389 54.0422 243.061 53.4211 242.504 52.9902C241.947 52.5592 241.552 52.397 239.855 51.7702C235.075 50.0578 233.377 48.2502 233.377 44.8925C233.377 40.908 236.288 38.2442 240.578 38.2442C244.869 38.2442 247.579 40.7457 247.941 44.9596H243.422C243.261 43.1185 242.343 42.2287 240.573 42.2287C238.97 42.2287 237.891 43.1521 237.891 44.5343C237.891 45.4241 238.347 46.1125 239.232 46.6105C239.822 46.9407 240.183 47.103 241.786 47.6962C244.174 48.586 245.387 49.2127 246.333 50.1305C247.479 51.2162 248.069 52.6991 248.069 54.378C248.069 58.3905 245.058 61.0598 240.54 61.0598C236.021 61.0598 233.144 58.424 233.177 54.2157H237.529L237.534 54.2045Z" fill="#78B9E6"/>
<path d="M256.35 60.6233H251.865V38.6751H256.35V48.2166L262.538 38.6751H267.742L260.674 49.2407L267.742 60.6289H262.472L256.35 50.8524V60.6289V60.6233Z" fill="#78B9E6"/>
<path d="M274.581 60.6233H270.096V38.6751H276.835C282.233 38.6751 285.149 41.0759 285.149 45.5864C285.149 49.0393 283.352 51.3449 279.979 52.2011L286.001 60.6233H280.569L274.581 51.9045V60.6233ZM276.612 49.2687C279.167 49.2687 280.603 48.0152 280.603 45.8159C280.603 43.6166 279.228 42.391 277.002 42.391H274.581V49.2687H276.612Z" fill="#78B9E6"/>
<path d="M293.692 56.8403L292.384 60.6233H287.637L295.166 38.6751H300.765L308.228 60.6233H303.319L302.078 56.8403H293.703H293.692ZM297.882 44.0699L294.838 53.1524H300.893L297.882 44.0699Z" fill="#78B9E6"/>
<path d="M314.973 60.6233H310.487V38.6751H314.906L324.038 52.3634V38.6751H328.524V60.6233H324.138L314.973 46.7336V60.6233Z" fill="#78B9E6"/>
<path d="M337.784 60.6233H333.298V38.6751H337.784V48.2166L343.972 38.6751H349.176L342.108 49.2407L349.176 60.6289H343.905L337.784 50.8524V60.6289V60.6233Z" fill="#78B9E6"/>
<path d="M355.664 47.7577H363.322V51.4456H355.664V56.9411H363.322V60.6289H351.179V38.6808H363.322V42.3686H355.664V47.7633V47.7577Z" fill="#78B9E6"/>
<path d="M372.076 60.6233H367.59V38.6751H372.009L381.141 52.3634V38.6751H385.627V60.6233H381.242L372.076 46.7336V60.6233Z" fill="#78B9E6"/>
<path d="M394.887 60.6233H390.402V38.6751H394.887V47.9536H403.168V38.6751H407.654V60.6233H403.168V51.6415H394.887V60.6233Z" fill="#78B9E6"/>
<path d="M415.99 56.8403L414.682 60.6234H409.935L417.465 38.6752H423.063L430.526 60.6234H425.618L424.377 56.8403H416.001H415.99ZM419.034 34.3325C419.034 35.5525 417.988 36.5374 416.741 36.5374C415.495 36.5374 414.448 35.5525 414.448 34.299C414.448 33.0454 415.461 32.0605 416.769 32.0605C418.077 32.0605 419.029 33.0454 419.029 34.3325H419.034ZM420.181 44.0755L417.136 53.1581H423.191L420.181 44.0755ZM426.007 34.3325C426.007 35.5525 424.961 36.5374 423.714 36.5374C422.468 36.5374 421.422 35.5525 421.422 34.299C421.422 33.0454 422.434 32.0605 423.748 32.0605C425.061 32.0605 426.007 33.0454 426.007 34.3325Z" fill="#78B9E6"/>
<path d="M436.425 51.5408C436.425 53.5834 436.686 54.7026 437.404 55.5532C438.061 56.3758 439.235 56.9019 440.448 56.9019C441.723 56.9019 442.969 56.3087 443.621 55.3853C444.277 54.4955 444.472 53.5442 444.472 51.5016V38.6696H448.991V51.3729C448.991 54.5963 448.301 56.8347 446.832 58.48C445.357 60.1253 443.07 61.0486 440.515 61.0486C437.961 61.0486 435.44 60.0637 433.904 58.3177C432.496 56.7396 431.939 54.7642 431.939 51.3729V38.6696H436.425V51.5352V51.5408Z" fill="#78B9E6"/>
<path d="M456.699 54.2045V54.5011C456.699 55.9841 457.973 57.0698 459.676 57.0698C461.379 57.0698 462.553 56.0513 462.553 54.7362C462.553 54.0422 462.225 53.4211 461.668 52.9902C461.112 52.5592 460.717 52.397 459.019 51.7702C454.239 50.0578 452.541 48.2502 452.541 44.8925C452.541 40.908 455.452 38.2442 459.743 38.2442C464.033 38.2442 466.743 40.7457 467.105 44.9596H462.586C462.425 43.1185 461.507 42.2287 459.737 42.2287C458.134 42.2287 457.055 43.1521 457.055 44.5343C457.055 45.4241 457.511 46.1125 458.396 46.6105C458.986 46.9407 459.348 47.103 460.95 47.6962C463.338 48.586 464.551 49.2127 465.497 50.1305C466.643 51.2162 467.233 52.6991 467.233 54.378C467.233 58.3905 464.223 61.0598 459.704 61.0598C455.185 61.0598 452.308 58.424 452.341 54.2157H456.693L456.699 54.2045Z" fill="#78B9E6"/>
<path d="M475.169 47.7577H482.827V51.4456H475.169V56.9411H482.827V60.6289H470.684V38.6808H482.827V42.3686H475.169V47.7633V47.7577Z" fill="#78B9E6"/>
<path d="M491.58 60.6233H487.095V38.6751H493.834C499.232 38.6751 502.148 41.0759 502.148 45.5864C502.148 49.0393 500.351 51.3449 496.979 52.2011L503 60.6233H497.568L491.58 51.9045V60.6233ZM493.612 49.2687C496.166 49.2687 497.602 48.0152 497.602 45.8159C497.602 43.6166 496.227 42.391 494.001 42.391H491.58V49.2687H493.612Z" fill="#78B9E6"/>
<path d="M20.6019 19.1949H0V60.7633H20.6019V19.1949Z" fill="#78B9E6"/>
<path d="M85.0066 19.1949H64.4047V60.7633H85.0066V19.1949Z" fill="#78B9E6"/>
<path d="M49.8357 17.9522L20.6057 47.3454L35.1735 61.9946L64.4035 32.6013L49.8357 17.9522Z" fill="#78B9E6"/>
<path d="M115.709 8.10885L110.322 13.5204L102.264 21.6348L94.2001 13.5204L88.8131 8.10885L96.8769 0L102.264 5.4171L107.645 0L115.709 8.10885Z" fill="#78B9E6"/>
</g>
<defs>
<clipPath id="clip0_125_2320">
<rect width="503" height="62" fill="white"/>
</clipPath>
</defs>
</svg>
